<svg xmlns="http://www.w3.org/2000/svg" viewBox="0 0 500 500"><g id="freepik--background-simple--inject-20"><path d="M415.17,105.29c-8.78-14.92-21.05-27.14-36.57-37.11C326.91,35,256.67,23,196.28,32.06c-43.14,6.44-71.9,35.77-90.29,74C84.25,151.18,64.51,196.1,39.77,240,11.36,290.28-1.38,342.58,60.34,386c53.4,37.58,120.38,27.83,181.6,26.63,20.28-.4,40.72.27,60.68,4.2,39.67,7.8,78.21,35.53,117.22,9.63,29.66-19.68,47.13-56.87,55.59-90.57,5.05-20.08,9-42.23,7.15-63.55-2.05-23.35-12.82-40.93-23.9-60.81a354.33,354.33,0,0,1-32.35-79.43A109.15,109.15,0,0,0,415.17,105.29Z" style="fill:#3E5C82"></path><path d="M415.17,105.29c-8.78-14.92-21.05-27.14-36.57-37.11C326.91,35,256.67,23,196.28,32.06c-43.14,6.44-71.9,35.77-90.29,74C84.25,151.18,64.51,196.1,39.77,240,11.36,290.28-1.38,342.58,60.34,386c53.4,37.58,120.38,27.83,181.6,26.63,20.28-.4,40.72.27,60.68,4.2,39.67,7.8,78.21,35.53,117.22,9.63,29.66-19.68,47.13-56.87,55.59-90.57,5.05-20.08,9-42.23,7.15-63.55-2.05-23.35-12.82-40.93-23.9-60.81a354.33,354.33,0,0,1-32.35-79.43A109.15,109.15,0,0,0,415.17,105.29Z" style="fill:#fff;opacity:0.7000000000000001"></path></g><g id="freepik--Plants--inject-20"><g style="opacity:0.2"><path d="M405.63,249.7c1.18,2.77,6.18,7.28,6.18,7.28s2-4.2,2.06-4.48c1.05-3.26,1.15-10.18-2-12.41a4.54,4.54,0,0,0-6.56,1.63C404,244.07,404.63,247.35,405.63,249.7Z"></path><path d="M454.14,297.52c0,.06,4-2.42,4.19-2.6,2.67-2.14,6.58-7.86,5.21-11.44a4.54,4.54,0,0,0-6.37-2.25c-2.42,1.22-3.71,4.29-4.17,6.81C452.46,291,454.14,297.51,454.14,297.52Z"></path><path d="M485.5,293.56c-2.49-2.91-9.38-2.22-12.54-.9-.27.11-4.34,2.39-4.29,2.44l.06,0c-1.08.1-2.25.22-3.52.38-2.34.31-5,.68-7.83,1.28a80.84,80.84,0,0,0-9.11,2.36,59.53,59.53,0,0,0-9.71,4.06l-.11.07c.79-.81,2.91-3.13,3.05-3.32,2-2.78,4.27-9.32,2-12.41a4.53,4.53,0,0,0-6.73-.49c-2,1.81-2.45,5.12-2.23,7.67.25,2.87,3.31,8.32,3.56,8.76a81,81,0,0,0-9,5.84c-1.67,1.25-3.32,2.55-5,3.87.66-.71,1.24-1.36,1.31-1.46,2-2.77,4.27-9.31,2-12.41a4.54,4.54,0,0,0-6.74-.48c-2,1.81-2.45,5.11-2.23,7.66s2.75,7.29,3.43,8.53l-1.87,1.54c-3,2.48-5.94,5-8.91,7.33-1,.83-2.12,1.61-3.18,2.39.58-.64,1.07-1.18,1.14-1.27,2-2.77,4.26-9.31,2-12.4a4.53,4.53,0,0,0-6.74-.49c-2,1.81-2.44,5.12-2.23,7.66s2.5,6.83,3.31,8.3c-1.11.77-2.22,1.55-3.33,2.24-.77.46-1.48.95-2.28,1.37L397.52,333c-1.51.75-3.06,1.54-4.55,2.24-1,.5-2,.95-3,1.41,1.06-.81,3.09-2.45,3.24-2.61a17.62,17.62,0,0,0,4.17-7.85,6,6,0,0,0,.64-.78,4.54,4.54,0,0,0-1.4-6.61c-3.37-1.82-9.54,1.29-12,3.66-.14.14-1.56,1.83-2.43,2.92.41-.72.83-1.41,1.25-2.15.84-1.46,1.64-2.94,2.5-4.53.39-.78.79-1.57,1.18-2.37s.75-1.66,1.13-2.5c.85-2,1.6-4,2.32-6,1.28.74,5.86,3.28,8.42,3.54s5.86-.11,7.7-2.1a4.53,4.53,0,0,0-.37-6.74c-3.06-2.32-9.64-.17-12.44,1.79-.18.13-2,1.76-3,2.68.42-1.24.85-2.48,1.23-3.75,1.12-3.66,2.13-7.41,3.16-11.14.32-1.15.65-2.28,1-3.42.45.27,5.83,3.41,8.7,3.7,2.54.26,5.85-.11,7.7-2.1a4.53,4.53,0,0,0-.38-6.74c-3.05-2.32-9.63-.17-12.44,1.79-.21.15-2.87,2.51-3.52,3.14.71-2.5,1.45-5,2.27-7.42a80.58,80.58,0,0,1,3.91-9.6c.21.12,5.81,3.43,8.75,3.73,2.54.26,5.85-.12,7.7-2.1a4.53,4.53,0,0,0-.38-6.74c-3.05-2.32-9.63-.17-12.44,1.79-.18.13-2.21,1.93-3.16,2.8l-.17-.13a57.69,57.69,0,0,1,5.61-8.79c1.15-1.53,2.34-2.93,3.52-4.27,1,.72,5.49,4,8.1,4.54s5.84.53,7.89-1.24a4.54,4.54,0,0,0,.37-6.75c-2.79-2.64-9.56-1.22-12.56.42-.17.09-1.73,1.18-2.85,2,.54-.6,1.09-1.22,1.63-1.78,2-2.11,3.95-3.91,5.69-5.5,1-.89,1.92-1.68,2.79-2.41,1.34.21,6.71,1,9.24.28s5.42-2.22,6.43-4.73a4.55,4.55,0,0,0-2.78-6.16c-3.69-1-9.05,3.32-11,6.16-.16.25-2.3,4.39-2.23,4.4h.08c-.85.69-1.76,1.43-2.73,2.26-1.78,1.55-3.79,3.32-5.83,5.39a80.49,80.49,0,0,0-6.3,7,59.38,59.38,0,0,0-5.85,8.74l-.06.11c.22-1.1.7-4.2.71-4.45.15-3.42-1.57-10.12-5.17-11.45a4.54,4.54,0,0,0-5.89,3.31c-.68,2.62.79,5.62,2.37,7.62,1.8,2.26,7.36,5.12,7.81,5.35a79.19,79.19,0,0,0-4.27,9.83c-.72,2-1.37,3.95-2,6,.16-1,.29-1.82.29-1.94.15-3.42-1.58-10.12-5.17-11.45a4.53,4.53,0,0,0-5.89,3.31c-.68,2.62.78,5.61,2.37,7.62s6.31,4.57,7.56,5.22c-.23.77-.48,1.54-.71,2.32-1.11,3.71-2.21,7.42-3.39,11-.42,1.27-.87,2.51-1.33,3.74.14-.85.24-1.57.25-1.68.15-3.42-1.58-10.12-5.18-11.45a4.53,4.53,0,0,0-5.88,3.31c-.68,2.62.78,5.61,2.37,7.62s5.85,4.32,7.33,5.1c-.5,1.25-1,2.51-1.54,3.71-.39.8-.71,1.61-1.15,2.39l-1.23,2.35c-.84,1.46-1.69,3-2.55,4.38-.59,1-1.16,1.91-1.74,2.84.43-1.26,1.22-3.75,1.26-4,.66-3.36,0-10.24-3.38-12.11a4.54,4.54,0,0,0-6.32,2.38c-1.07,2.49-.08,5.67,1.19,7.9,1.39,2.44,6.25,6,6.86,6.43-1,1.54-1.92,3-2.84,4.42-3.15,4.79-5.95,8.66-8,11.36l1.9,1.78.13-.18c2-2.78,4.75-6.78,7.85-11.73,1-1.56,2-3.25,3-5a48.28,48.28,0,0,0,5.51,1.81c0,2.89,1.92,8.15,2.17,8.83-1.65.75-3.27,1.47-4.8,2.12-5.27,2.26-9.74,3.94-12.91,5.08l2.08,2c3.06-1.2,7.1-2.85,11.74-5,1.69-.76,3.47-1.6,5.29-2.48.42.6,3.89,5.52,6.32,7,2.2,1.3,5.37,2.35,7.87,1.32a4.53,4.53,0,0,0,2.49-6.28c-1.81-3.38-8.68-4.19-12.05-3.58-.2,0-2.31.67-3.64,1.09.74-.37,1.47-.71,2.23-1.1,1.51-.75,3-1.55,4.59-2.4l2.29-1.32c.78-.43,1.54-1,2.32-1.47,1.78-1.17,3.54-2.44,5.27-3.76.66,1.32,3.08,6,5.07,7.59s4.95,3.14,7.58,2.5a4.53,4.53,0,0,0,3.41-5.83c-1.27-3.62-7.94-5.45-11.37-5.36-.21,0-2.66.34-4,.56,1-.81,2.08-1.6,3.1-2.45,3-2.44,5.87-5,8.78-7.55l2.69-2.31c.23.47,3,6.05,5.21,7.88,2,1.62,5,3.13,7.59,2.5a4.54,4.54,0,0,0,3.4-5.83c-1.27-3.62-7.94-5.46-11.36-5.37-.26,0-3.78.5-4.67.67,2-1.69,4-3.36,6-4.93a78.7,78.7,0,0,1,8.56-5.85c.1.22,3,6.06,5.23,7.93,2,1.62,4.95,3.14,7.58,2.5a4.54,4.54,0,0,0,3.41-5.83c-1.27-3.62-7.94-5.46-11.36-5.37-.23,0-2.91.38-4.19.59l-.07-.21a58.3,58.3,0,0,1,9.53-4.23c1.8-.64,3.57-1.16,5.29-1.62.42,1.15,2.39,6.35,4.26,8.26s4.58,3.66,7.26,3.31a4.54,4.54,0,0,0,4-5.42c-.87-3.74-7.3-6.29-10.71-6.58-.18,0-2.09,0-3.48.09.79-.19,1.59-.41,2.34-.58,2.83-.66,5.46-1.09,7.79-1.45,1.32-.19,2.53-.34,3.65-.46,1,.9,5.06,4.51,7.55,5.33s5.75,1.14,8-.41A4.54,4.54,0,0,0,485.5,293.56Z"></path></g><g style="opacity:0.2"><path d="M69.24,406.76c.07-3-2.61-9.18-2.61-9.18s-3.54,3-3.74,3.22c-2.3,2.54-5.26,8.79-3.35,12.11a4.53,4.53,0,0,0,6.64,1.23C68.38,412.56,69.17,409.32,69.24,406.76Z"></path><path d="M44.89,343.15c0-.07-4.6.55-4.89.63-3.32.84-9.24,4.42-9.48,8.25a4.55,4.55,0,0,0,4.87,4.69c2.7-.11,5.15-2.37,6.61-4.47C43.72,349.79,44.89,343.15,44.89,343.15Z"></path><path d="M14.71,333.75c1.06,3.69,7.61,5.91,11,6,.29,0,4.94-.37,4.91-.44l0-.07c1,.36,2.14.73,3.36,1.11,2.26.69,4.82,1.45,7.66,2.09a81.93,81.93,0,0,0,9.27,1.62,59.67,59.67,0,0,0,10.52.32h.12c-1,.4-3.94,1.64-4.15,1.76-3,1.69-7.74,6.7-7,10.46a4.54,4.54,0,0,0,5.93,3.24c2.58-.82,4.34-3.65,5.2-6.06,1-2.72.44-9,.39-9.45a79.24,79.24,0,0,0,10.6-1.6c2-.43,4.08-.94,6.12-1.47-.89.38-1.69.73-1.8.79-3,1.69-7.74,6.71-7,10.47a4.54,4.54,0,0,0,5.93,3.23c2.58-.81,4.34-3.65,5.2-6.06s.53-7.77.41-9.17l2.34-.63c3.74-1,7.47-2.07,11.15-3,1.3-.32,2.59-.59,3.88-.86-.79.34-1.46.63-1.55.68-3,1.69-7.74,6.71-7,10.47a4.54,4.54,0,0,0,5.93,3.23c2.59-.81,4.35-3.65,5.21-6.06s.55-7.25.43-8.92c1.33-.24,2.66-.48,4-.66.89-.09,1.74-.25,2.64-.3l2.64-.2c1.68-.06,3.42-.14,5.07-.16l3.33,0c-1.3.3-3.82.95-4,1a17.62,17.62,0,0,0-7,5.43,5.35,5.35,0,0,0-.9.44,4.53,4.53,0,0,0-1.47,6.59c2.31,3.06,9.22,2.78,12.46,1.65.19-.07,2.18-1,3.42-1.64-.67.47-1.33.93-2,1.43-1.38,1-2.72,2-4.16,3.08l-2.06,1.67c-.7.55-1.37,1.21-2.06,1.81-1.58,1.44-3.11,3-4.62,4.55-.86-1.2-4-5.41-6.19-6.71s-5.38-2.32-7.88-1.28a4.54,4.54,0,0,0-2.46,6.29c1.83,3.38,8.7,4.15,12.07,3.52.21,0,2.58-.76,3.87-1.18-.9.95-1.8,1.9-2.68,2.9-2.54,2.87-5,5.86-7.5,8.83-.75.91-1.52,1.81-2.29,2.71-.3-.43-3.9-5.52-6.38-7-2.21-1.29-5.38-2.32-7.88-1.28a4.53,4.53,0,0,0-2.45,6.29c1.82,3.38,8.7,4.15,12.06,3.52.26,0,3.66-1.09,4.51-1.39-1.69,2-3.39,3.94-5.14,5.81a79.67,79.67,0,0,1-7.54,7.12c-.14-.2-3.87-5.53-6.41-7C72.54,380,69.37,379,66.87,380a4.54,4.54,0,0,0-2.45,6.3c1.82,3.37,8.69,4.14,12.06,3.52.22-.05,2.82-.84,4-1.24l.11.19a58.29,58.29,0,0,1-8.75,5.67c-1.69.92-3.35,1.71-5,2.43-.59-1.06-3.35-5.89-5.5-7.48s-5.09-2.9-7.69-2.14a4.53,4.53,0,0,0-3.13,6c1.45,3.56,8.19,5.08,11.61,4.83.19,0,2.06-.37,3.42-.64-.74.32-1.5.66-2.22.95-2.69,1.09-5.21,1.92-7.46,2.64-1.28.4-2.45.73-3.54,1-1.12-.75-5.7-3.67-8.29-4.09s-5.85-.22-7.81,1.65a4.53,4.53,0,0,0,0,6.75c2.92,2.49,9.61.73,12.53-1.07.25-.15,3.91-3,3.85-3.07l-.07-.05c1.06-.27,2.19-.57,3.42-.92,2.27-.68,4.82-1.46,7.54-2.49A83.28,83.28,0,0,0,72.17,395a60.57,60.57,0,0,0,9-5.53l.1-.09c-.65.92-2.39,3.55-2.5,3.76-1.55,3.06-2.75,9.87,0,12.57a4.54,4.54,0,0,0,6.73-.57c1.7-2.11,1.61-5.44,1-7.92-.7-2.81-4.58-7.71-4.89-8.1a80.76,80.76,0,0,0,8-7.18c1.46-1.49,2.89-3,4.29-4.6-.53.81-1,1.54-1.06,1.65-1.55,3.05-2.76,9.86,0,12.57a4.54,4.54,0,0,0,6.73-.58c1.71-2.1,1.62-5.43,1-7.92s-3.85-6.77-4.72-7.88l1.61-1.81c2.55-2.92,5.08-5.85,7.65-8.64.91-1,1.84-1.92,2.76-2.86-.47.72-.87,1.33-.92,1.43-1.55,3.05-2.75,9.87,0,12.57a4.54,4.54,0,0,0,6.73-.57c1.7-2.11,1.61-5.44,1-7.93s-3.54-6.35-4.57-7.68c1-.93,2-1.87,3-2.73.68-.57,1.31-1.17,2-1.71s1.4-1.08,2.09-1.62c1.37-1,2.78-2,4.14-2.93.94-.65,1.85-1.25,2.76-1.86-.91,1-2.66,2.9-2.79,3.08-2,2.78-4.22,9.33-1.94,12.42a4.54,4.54,0,0,0,6.74.45c2-1.82,2.42-5.13,2.19-7.68-.25-2.8-3.2-8-3.58-8.69,1.52-1,3-2,4.42-2.86,4.84-3,9-5.41,11.95-7l-1-2.41-.2.12c-2.95,1.7-7.13,4.2-12,7.41-1.55,1-3.17,2.13-4.84,3.29A48.84,48.84,0,0,0,118.6,343c1.23-2.62,1.63-8.21,1.68-8.94,1.82,0,3.58,0,5.25.06,5.73.13,10.5.45,13.85.73l-1.08-2.65c-3.28-.18-7.64-.35-12.74-.35-1.85,0-3.82,0-5.84.07-.14-.72-1.25-6.64-2.87-9-1.46-2.09-3.91-4.36-6.62-4.46a4.53,4.53,0,0,0-4.86,4.69c.24,3.83,6.16,7.4,9.48,8.25.2,0,2.38.35,3.76.52l-2.48.07c-1.68.06-3.36.17-5.17.28l-2.63.26c-.89.06-1.81.25-2.72.37-2.11.33-4.23.76-6.36,1.24-.06-1.47-.33-6.7-1.47-9s-3.2-4.9-5.86-5.42a4.54,4.54,0,0,0-5.52,3.9c-.34,3.82,5,8.26,8.12,9.59.2.09,2.57.79,3.88,1.15-1.28.3-2.55.6-3.83.94-3.7,1-7.42,2.13-11.13,3.24-1.13.34-2.27.66-3.41,1,0-.53-.2-6.75-1.47-9.33-1.13-2.3-3.21-4.91-5.87-5.42a4.54,4.54,0,0,0-5.52,3.9c-.34,3.82,5,8.25,8.13,9.59.23.1,3.65,1.11,4.53,1.32-2.5.73-5,1.42-7.5,2a80.07,80.07,0,0,1-10.21,1.78c0-.24-.18-6.74-1.48-9.39-1.13-2.29-3.21-4.9-5.87-5.41a4.53,4.53,0,0,0-5.51,3.89c-.35,3.82,5,8.26,8.12,9.59.2.09,2.8.86,4,1.2,0,.12,0,.1,0,.22A59.29,59.29,0,0,1,51,343.46c-1.91-.17-3.72-.43-5.48-.73.09-1.21.45-6.76-.46-9.27s-2.65-5.23-5.24-6a4.54,4.54,0,0,0-5.91,3.27c-.76,3.76,4,8.75,7,10.42.16.09,1.92.84,3.2,1.36-.79-.15-1.61-.28-2.37-.44-2.84-.57-5.41-1.27-7.68-1.91-1.29-.37-2.44-.73-3.52-1.08-.53-1.24-2.74-6.21-4.66-8s-4.76-3.42-7.43-2.94A4.54,4.54,0,0,0,14.71,333.75Z"></path></g></g><g id="freepik--Floor--inject-20"><line x1="46.01" y1="420.98" x2="480.99" y2="420.98" style="fill:none;stroke:#263238;stroke-linecap:round;stroke-miterlimit:10"></line></g><g id="freepik--Calendar--inject-20"><rect x="300.58" y="70.73" width="151.91" height="157.84" style="fill:#fff;stroke:#263238;stroke-linecap:round;stroke-miterlimit:10"></rect><rect x="300.58" y="70.73" width="151.91" height="30.38" style="fill:#3E5C82;stroke:#263238;stroke-linecap:round;stroke-miterlimit:10"></rect><rect x="309.47" y="120.38" width="17.39" height="17.39" style="fill:#fff;stroke:#263238;stroke-linecap:round;stroke-miterlimit:10"></rect><rect x="333.12" y="120.38" width="17.39" height="17.39" style="fill:#fff;stroke:#263238;stroke-linecap:round;stroke-miterlimit:10"></rect><rect x="356.76" y="120.38" width="17.39" height="17.39" style="fill:#fff;stroke:#263238;stroke-linecap:round;stroke-miterlimit:10"></rect><rect x="380.4" y="120.38" width="17.39" height="17.39" style="fill:#fff;stroke:#263238;stroke-linecap:round;stroke-miterlimit:10"></rect><rect x="404.05" y="120.38" width="17.39" height="17.39" style="fill:#fff;stroke:#263238;stroke-linecap:round;stroke-miterlimit:10"></rect><rect x="427.69" y="120.38" width="17.39" height="17.39" style="fill:#fff;stroke:#263238;stroke-linecap:round;stroke-miterlimit:10"></rect><rect x="309.47" y="144.29" width="17.39" height="17.39" style="fill:#fff;stroke:#263238;stroke-linecap:round;stroke-miterlimit:10"></rect><rect x="333.12" y="144.29" width="17.39" height="17.39" style="fill:#fff;stroke:#263238;stroke-linecap:round;stroke-miterlimit:10"></rect><rect x="356.76" y="144.29" width="17.39" height="17.39" style="fill:#fff;stroke:#263238;stroke-linecap:round;stroke-miterlimit:10"></rect><rect x="380.4" y="144.29" width="17.39" height="17.39" style="fill:#fff;stroke:#263238;stroke-linecap:round;stroke-miterlimit:10"></rect><rect x="404.05" y="144.29" width="17.39" height="17.39" style="fill:#fff;stroke:#263238;stroke-linecap:round;stroke-miterlimit:10"></rect><rect x="427.69" y="144.29" width="17.39" height="17.39" style="fill:#fff;stroke:#263238;stroke-linecap:round;stroke-miterlimit:10"></rect><rect x="309.47" y="168.2" width="17.39" height="17.39" style="fill:#fff;stroke:#263238;stroke-linecap:round;stroke-miterlimit:10"></rect><rect x="333.12" y="168.2" width="17.39" height="17.39" style="fill:#fff;stroke:#263238;stroke-linecap:round;stroke-miterlimit:10"></rect><rect x="356.76" y="168.2" width="17.39" height="17.39" style="fill:#fff;stroke:#263238;stroke-linecap:round;stroke-miterlimit:10"></rect><rect x="380.4" y="168.2" width="17.39" height="17.39" style="fill:#fff;stroke:#263238;stroke-linecap:round;stroke-miterlimit:10"></rect><rect x="404.05" y="168.2" width="17.39" height="17.39" style="fill:#fff;stroke:#263238;stroke-linecap:round;stroke-miterlimit:10"></rect><rect x="427.69" y="168.2" width="17.39" height="17.39" style="fill:#fff;stroke:#263238;stroke-linecap:round;stroke-miterlimit:10"></rect><rect x="309.47" y="192.12" width="17.39" height="17.39" style="fill:#fff;stroke:#263238;stroke-linecap:round;stroke-miterlimit:10"></rect><rect x="333.12" y="192.12" width="17.39" height="17.39" style="fill:#fff;stroke:#263238;stroke-linecap:round;stroke-miterlimit:10"></rect><rect x="356.76" y="192.12" width="17.39" height="17.39" style="fill:#fff;stroke:#263238;stroke-linecap:round;stroke-miterlimit:10"></rect><rect x="380.4" y="192.12" width="17.39" height="17.39" style="fill:#fff;stroke:#263238;stroke-linecap:round;stroke-miterlimit:10"></rect><rect x="404.05" y="192.12" width="17.39" height="17.39" style="fill:#fff;stroke:#263238;stroke-linecap:round;stroke-miterlimit:10"></rect><rect x="427.69" y="192.12" width="17.39" height="17.39" style="fill:#fff;stroke:#263238;stroke-linecap:round;stroke-miterlimit:10"></rect><path d="M313.92,78.88h0a2.22,2.22,0,0,1-2.23-2.22V61.1a2.23,2.23,0,0,1,2.23-2.23h0a2.22,2.22,0,0,1,2.22,2.23V76.66A2.21,2.21,0,0,1,313.92,78.88Z" style="fill:#fff;stroke:#263238;stroke-linecap:round;stroke-miterlimit:10"></path><path d="M322.81,78.88h0a2.21,2.21,0,0,1-2.22-2.22V61.1a2.22,2.22,0,0,1,2.22-2.23h0A2.22,2.22,0,0,1,325,61.1V76.66A2.21,2.21,0,0,1,322.81,78.88Z" style="fill:#fff;stroke:#263238;stroke-linecap:round;stroke-miterlimit:10"></path><path d="M331.7,78.88h0a2.21,2.21,0,0,1-2.22-2.22V61.1a2.22,2.22,0,0,1,2.22-2.23h0a2.22,2.22,0,0,1,2.22,2.23V76.66A2.21,2.21,0,0,1,331.7,78.88Z" style="fill:#fff;stroke:#263238;stroke-linecap:round;stroke-miterlimit:10"></path><path d="M340.59,78.88h0a2.22,2.22,0,0,1-2.22-2.22V61.1a2.23,2.23,0,0,1,2.22-2.23h0a2.23,2.23,0,0,1,2.23,2.23V76.66A2.22,2.22,0,0,1,340.59,78.88Z" style="fill:#fff;stroke:#263238;stroke-linecap:round;stroke-miterlimit:10"></path><path d="M349.49,78.88h0a2.22,2.22,0,0,1-2.23-2.22V61.1a2.23,2.23,0,0,1,2.23-2.23h0a2.23,2.23,0,0,1,2.22,2.23V76.66A2.22,2.22,0,0,1,349.49,78.88Z" style="fill:#fff;stroke:#263238;stroke-linecap:round;stroke-miterlimit:10"></path><path d="M358.38,78.88h0a2.21,2.21,0,0,1-2.22-2.22V61.1a2.22,2.22,0,0,1,2.22-2.23h0a2.22,2.22,0,0,1,2.22,2.23V76.66A2.21,2.21,0,0,1,358.38,78.88Z" style="fill:#fff;stroke:#263238;stroke-linecap:round;stroke-miterlimit:10"></path><path d="M367.27,78.88h0a2.21,2.21,0,0,1-2.22-2.22V61.1a2.22,2.22,0,0,1,2.22-2.23h0a2.22,2.22,0,0,1,2.22,2.23V76.66A2.21,2.21,0,0,1,367.27,78.88Z" style="fill:#fff;stroke:#263238;stroke-linecap:round;stroke-miterlimit:10"></path><rect x="373.94" y="58.87" width="4.45" height="20.01" rx="2.22" style="fill:#fff;stroke:#263238;stroke-linecap:round;stroke-miterlimit:10"></rect><path d="M385.06,78.88h0a2.22,2.22,0,0,1-2.23-2.22V61.1a2.23,2.23,0,0,1,2.23-2.23h0a2.23,2.23,0,0,1,2.22,2.23V76.66A2.22,2.22,0,0,1,385.06,78.88Z" style="fill:#fff;stroke:#263238;stroke-linecap:round;stroke-miterlimit:10"></path><path d="M394,78.88h0a2.21,2.21,0,0,1-2.22-2.22V61.1A2.22,2.22,0,0,1,394,58.87h0a2.22,2.22,0,0,1,2.22,2.23V76.66A2.21,2.21,0,0,1,394,78.88Z" style="fill:#fff;stroke:#263238;stroke-linecap:round;stroke-miterlimit:10"></path><path d="M402.84,78.88h0a2.21,2.21,0,0,1-2.22-2.22V61.1a2.22,2.22,0,0,1,2.22-2.23h0a2.22,2.22,0,0,1,2.22,2.23V76.66A2.21,2.21,0,0,1,402.84,78.88Z" style="fill:#fff;stroke:#263238;stroke-linecap:round;stroke-miterlimit:10"></path><path d="M411.73,78.88h0a2.21,2.21,0,0,1-2.22-2.22V61.1a2.22,2.22,0,0,1,2.22-2.23h0A2.23,2.23,0,0,1,414,61.1V76.66A2.22,2.22,0,0,1,411.73,78.88Z" style="fill:#fff;stroke:#263238;stroke-linecap:round;stroke-miterlimit:10"></path><path d="M420.62,78.88h0a2.22,2.22,0,0,1-2.22-2.22V61.1a2.23,2.23,0,0,1,2.22-2.23h0a2.23,2.23,0,0,1,2.23,2.23V76.66A2.22,2.22,0,0,1,420.62,78.88Z" style="fill:#fff;stroke:#263238;stroke-linecap:round;stroke-miterlimit:10"></path><path d="M429.52,78.88h0a2.22,2.22,0,0,1-2.23-2.22V61.1a2.23,2.23,0,0,1,2.23-2.23h0a2.22,2.22,0,0,1,2.22,2.23V76.66A2.21,2.21,0,0,1,429.52,78.88Z" style="fill:#fff;stroke:#263238;stroke-linecap:round;stroke-miterlimit:10"></path><path d="M438.41,78.88h0a2.21,2.21,0,0,1-2.22-2.22V61.1a2.22,2.22,0,0,1,2.22-2.23h0a2.22,2.22,0,0,1,2.22,2.23V76.66A2.21,2.21,0,0,1,438.41,78.88Z" style="fill:#fff;stroke:#263238;stroke-linecap:round;stroke-miterlimit:10"></path></g><g id="freepik--Money--inject-20"><rect x="127.63" y="39.85" width="119.46" height="223.68" style="fill:#fff;stroke:#263238;stroke-linecap:round;stroke-miterlimit:10"></rect><path d="M142,63.18a8.77,8.77,0,0,1-.9,0V237.88a6.6,6.6,0,0,1,.9,0A8.72,8.72,0,0,1,150.46,249h74.7a8.72,8.72,0,0,1,8.42-11.13V63.18a8.76,8.76,0,0,1-8.76-8.76h-74A8.76,8.76,0,0,1,142,63.18Zm45.32,56.25a32.26,32.26,0,1,1-32.26,32.26A32.26,32.26,0,0,1,187.36,119.43Z" style="fill:#3E5C82;stroke:#263238;stroke-linecap:round;stroke-miterlimit:10"></path><rect x="100.42" y="58.12" width="119.46" height="223.68" transform="translate(-40.17 49.93) rotate(-15.77)" style="fill:#fff;stroke:#263238;stroke-linecap:round;stroke-miterlimit:10"></rect><path d="M92.48,97.1c-.3.08-.59.14-.88.2l47.49,168.16a7.89,7.89,0,0,1,.86-.29,8.76,8.76,0,0,1,10.81,6,9,9,0,0,1,.32,2.38L223,253.29a8.56,8.56,0,0,1-1-2.2,8.76,8.76,0,0,1,6.05-10.81L180.58,72.21a8.75,8.75,0,0,1-10.81-6L98.52,86.29A8.76,8.76,0,0,1,92.48,97.1Zm58.9,41.81a32.26,32.26,0,1,1-22.28,39.81A32.26,32.26,0,0,1,151.38,138.91Z" style="fill:#3E5C82;stroke:#263238;stroke-linecap:round;stroke-miterlimit:10"></path><rect x="85.65" y="73.93" width="119.46" height="223.68" transform="translate(-67.03 83.16) rotate(-26.17)" style="fill:#fff;stroke:#263238;stroke-linecap:round;stroke-miterlimit:10"></rect><path d="M65.66,126.32a8.67,8.67,0,0,1-.83.36L141.9,283.5c.25-.15.52-.3.79-.43a8.75,8.75,0,0,1,11.72,4,8.47,8.47,0,0,1,.75,2.28l67-32.94a9.29,9.29,0,0,1-1.35-2,8.76,8.76,0,0,1,4-11.72L147.83,86a8.77,8.77,0,0,1-11.73-4L69.66,114.6A8.74,8.74,0,0,1,65.66,126.32Zm65.49,30.5A32.26,32.26,0,1,1,116.42,200,32.26,32.26,0,0,1,131.15,156.82Z" style="fill:#3E5C82;stroke:#263238;stroke-linecap:round;stroke-miterlimit:10"></path><rect x="71" y="98.3" width="119.46" height="223.68" transform="translate(-104.28 132.56) rotate(-39.84)" style="fill:#fff;stroke:#263238;stroke-linecap:round;stroke-miterlimit:10"></rect><path d="M39.22,171.22a6.14,6.14,0,0,1-.72.54l112,134.17a6.52,6.52,0,0,1,.66-.62,8.77,8.77,0,0,1,13.6,3.15l57.35-47.86a8.43,8.43,0,0,1-1.78-1.61,8.75,8.75,0,0,1,1.12-12.33L109.51,112.57a8.76,8.76,0,0,1-12.34-1.12L40.33,158.88A8.77,8.77,0,0,1,39.22,171.22Zm70.84,14.15a32.26,32.26,0,1,1-4.1,45.44A32.26,32.26,0,0,1,110.06,185.37Z" style="fill:#3E5C82;stroke:#263238;stroke-linecap:round;stroke-miterlimit:10"></path></g><g id="freepik--Tax--inject-20"><rect x="173.27" y="158.57" width="210.59" height="289.83" style="fill:#fff;stroke:#263238;stroke-linecap:round;stroke-miterlimit:10"></rect><rect x="173.27" y="158.57" width="128.02" height="84.14" style="fill:#263238;stroke:#263238;stroke-linecap:round;stroke-miterlimit:10"></rect><path d="M196.78,221.84V179.06h-7.87v-6.65h24.65v6.65h-7.75v42.78Z" style="fill:#fff"></path><path d="M214.36,221.84l9.88-49.43h9.65l9.88,49.43h-8.36l-1.95-11.41h-8.61l-2,11.41Zm11.41-17.15h6.71l-3.35-20.75Z" style="fill:#fff"></path><path d="M245.36,221.84l9.95-26.24-9.65-23.19h8.43l6.4,15.31,5.62-15.31h7.81l-9.52,24.9,10.25,24.53h-8.42l-7-16.6-6.1,16.6Z" style="fill:#fff"></path><line x1="353.87" y1="276.05" x2="372.21" y2="276.05" style="fill:none;stroke:#263238;stroke-linecap:round;stroke-miterlimit:10"></line><line x1="325.45" y1="276.05" x2="350.82" y2="276.05" style="fill:none;stroke:#263238;stroke-linecap:round;stroke-miterlimit:10"></line><line x1="272.89" y1="276.05" x2="321.17" y2="276.05" style="fill:none;stroke:#263238;stroke-linecap:round;stroke-miterlimit:10"></line><line x1="203.52" y1="276.05" x2="269.84" y2="276.05" style="fill:none;stroke:#263238;stroke-linecap:round;stroke-miterlimit:10"></line><line x1="186.01" y1="276.05" x2="199.86" y2="276.05" style="fill:none;stroke:#263238;stroke-linecap:round;stroke-miterlimit:10"></line><line x1="330.95" y1="289.9" x2="372.21" y2="289.9" style="fill:none;stroke:#263238;stroke-linecap:round;stroke-miterlimit:10"></line><line x1="254.56" y1="289.9" x2="327.29" y2="289.9" style="fill:none;stroke:#263238;stroke-linecap:round;stroke-miterlimit:10"></line><line x1="220.02" y1="289.9" x2="249.67" y2="289.9" style="fill:none;stroke:#263238;stroke-linecap:round;stroke-miterlimit:10"></line><line x1="186.01" y1="289.9" x2="215.14" y2="289.9" style="fill:none;stroke:#263238;stroke-linecap:round;stroke-miterlimit:10"></line><line x1="282.98" y1="303.76" x2="372.21" y2="303.76" style="fill:none;stroke:#263238;stroke-linecap:round;stroke-miterlimit:10"></line><line x1="248.75" y1="303.76" x2="278.56" y2="303.76" style="fill:none;stroke:#263238;stroke-linecap:round;stroke-miterlimit:10"></line><line x1="204.97" y1="303.76" x2="246" y2="303.76" style="fill:none;stroke:#263238;stroke-linecap:round;stroke-miterlimit:10"></line><line x1="186.01" y1="303.76" x2="202.3" y2="303.76" style="fill:none;stroke:#263238;stroke-linecap:round;stroke-miterlimit:10"></line><rect x="184.9" y="314.84" width="186.2" height="119.7" style="fill:none;stroke:#263238;stroke-linecap:round;stroke-miterlimit:10"></rect><line x1="235" y1="337.56" x2="370.55" y2="337.56" style="fill:none;stroke:#263238;stroke-linecap:round;stroke-miterlimit:10"></line><line x1="185.46" y1="337.56" x2="230.41" y2="337.56" style="fill:none;stroke:#263238;stroke-linecap:round;stroke-miterlimit:10"></line><line x1="185.46" y1="353.63" x2="370.55" y2="353.63" style="fill:none;stroke:#263238;stroke-linecap:round;stroke-miterlimit:10"></line><line x1="345.93" y1="369.71" x2="370.55" y2="369.71" style="fill:none;stroke:#263238;stroke-linecap:round;stroke-miterlimit:10"></line><line x1="185.46" y1="369.71" x2="343.79" y2="369.71" style="fill:none;stroke:#263238;stroke-linecap:round;stroke-miterlimit:10"></line><line x1="261.28" y1="385.78" x2="370.55" y2="385.78" style="fill:none;stroke:#263238;stroke-linecap:round;stroke-miterlimit:10"></line><line x1="185.46" y1="385.78" x2="258.53" y2="385.78" style="fill:none;stroke:#263238;stroke-linecap:round;stroke-miterlimit:10"></line><line x1="230.41" y1="401.85" x2="370.55" y2="401.85" style="fill:none;stroke:#263238;stroke-linecap:round;stroke-miterlimit:10"></line><line x1="185.46" y1="401.85" x2="224.61" y2="401.85" style="fill:none;stroke:#263238;stroke-linecap:round;stroke-miterlimit:10"></line><line x1="264.64" y1="417.92" x2="370.55" y2="417.92" style="fill:none;stroke:#263238;stroke-linecap:round;stroke-miterlimit:10"></line><line x1="185.46" y1="417.92" x2="260.97" y2="417.92" style="fill:none;stroke:#263238;stroke-linecap:round;stroke-miterlimit:10"></line><line x1="330.1" y1="414.35" x2="330.1" y2="433.99" style="fill:none;stroke:#263238;stroke-linecap:round;stroke-miterlimit:10"></line><line x1="330.1" y1="329.4" x2="330.1" y2="410.99" style="fill:none;stroke:#263238;stroke-linecap:round;stroke-miterlimit:10"></line><line x1="330.1" y1="315.95" x2="330.1" y2="324.21" style="fill:none;stroke:#263238;stroke-linecap:round;stroke-miterlimit:10"></line></g><g id="freepik--Character--inject-20"><path d="M379.3,450.05l-3.6,2.66s-6.26,2.54-7.2,3.07-2.53.67-2.13,1.87,3.07,1.2,6.27,1.46,4.13,0,7.6-.53,6.13.4,7.46-.27,1.47,0,1.74-1.6a28.2,28.2,0,0,0,.26-3.73Z" style="fill:#fff;stroke:#263238;stroke-linecap:round;stroke-miterlimit:10"></path><path d="M387.7,458.31c1.34-.66,1.47,0,1.74-1.6.08-.49.13-1,.17-1.54a16.32,16.32,0,0,1-5.37,1.41c-2.54,0-3.6.67-9.47,1.07a36.14,36.14,0,0,1-8.45-.47,1,1,0,0,0,.05.47c.4,1.2,3.07,1.2,6.27,1.46s4.13,0,7.6-.53S386.37,459,387.7,458.31Z" style="fill:#fff;stroke:#263238;stroke-linecap:round;stroke-miterlimit:10"></path><path d="M442.63,450.05s-.8,1.86-1.46,3.46-3.2,4.94-3.6,5.87.26,1.87,2.13,2a30.43,30.43,0,0,0,5.6-.27c.53-.13,6.4-7.06,6.67-11.2s-3.44-4-3.44-4Z" style="fill:#fff;stroke:#263238;stroke-linecap:round;stroke-miterlimit:10"></path><path d="M452,449.91a5.13,5.13,0,0,0-.19-1.8c0,.18-.1.36-.14.56-.22,1.17-3.27,6.94-4.44,8.88s-2.16,2.5-4.61,2.72a17.43,17.43,0,0,1-5.12-.53c-.11.8.61,1.52,2.23,1.64a30.43,30.43,0,0,0,5.6-.27C445.83,461,451.7,454.05,452,449.91Z" style="fill:#fff;stroke:#263238;stroke-linecap:round;stroke-miterlimit:10"></path><path d="M397.57,368.45l-.27,9.47S380.64,414.85,380.24,417s2.26,32,2.26,32h-4.13l-.13,1.6,11.46,3.2s2.14-12.93,2.27-13.73,2.4-23.6,2.4-23.6l16.13-21.73s8.13,25.86,8.53,26,22.8,27.46,22.8,27.46l-.66,1.2s-.27,1.07,1.2,1.87,2.66,1.33,4.13-.14,3-3.47,3.14-4.93-1.27-3.73-2.34-5.73-3.07-5.2-3.07-5.2l-12.4-21.6L430,378.18l-.54-6.66Z" style="fill:#263238;stroke:#263238;stroke-linecap:round;stroke-miterlimit:10"></path><path d="M384,322.42a6.07,6.07,0,0,0-2.58,2.95c-.74,2,.86,5,.86,5s4.42,11.91,6.62,15.34,6.51,6.75,10.32,6.26,3.8-3.43,3.8-3.43,4.05-6.51.86-11.3S387.29,320.33,384,322.42Z" style="fill:#fff;stroke:#263238;stroke-linecap:round;stroke-miterlimit:10"></path><path d="M409.12,321.05s-6,16.07-6.4,19.61-6.4,26.42-6.67,27.51,2.58,2.31,3.54,2.59,25.06,3.54,27.64,2.45,3.27-1,3.27-2.18,4.77-41.13,2.45-46.17-4.84-10.27-6.23-10.45S409.12,321.05,409.12,321.05Z" style="fill:#fff;stroke:#263238;stroke-linecap:round;stroke-miterlimit:10"></path><path d="M416.9,336.45c3.07-1.06,12.93-3.06,12.93-3.06s-9.86,6.26-14.93,8.93" style="fill:none;stroke:#263238;stroke-linecap:round;stroke-miterlimit:10"></path><line x1="430.1" y1="335.39" x2="422.1" y2="342.72" style="fill:none;stroke:#263238;stroke-linecap:round;stroke-miterlimit:10"></line><path d="M408.2,287s-3.22,4.35-2.58,6.12a4.47,4.47,0,0,1,.32,2.74s-4,4.67-3.22,5.15a6.42,6.42,0,0,1,1.61,2.1s1,6.28,1.77,7.25,3.23.16,3.23.16l1.61-.16,1.12,7.89,12.24-6.44v-6s8.06-8.06,7.9-12.25.16-8.05-1.45-9.5-9-4.51-12.4-5-5.32-1-6.29-.32-2.57,1.77-2.57,1.77,0-3.87-1.94-2.26S405.94,285.74,408.2,287Z" style="fill:#fff;stroke:#263238;stroke-linecap:round;stroke-miterlimit:10"></path><path d="M430.75,284.13c-1.61-1.45-9-4.51-12.4-5s-5.32-1-6.29-.32-2.57,1.77-2.57,1.77,0-3.87-1.94-2.26-1.61,7.41.65,8.7l7.57.65a10.58,10.58,0,0,0-1.13,3.38c-.16,1.61,2.74,2.9,2.74,2.9s-.81,4.51-.81,5.31,1.78,1,2.1.32-.49-2.57,2.09-3.22,3.87,1.45,3.71,3.39a4.24,4.24,0,0,1-2.26,3.54l-1,.48a8.11,8.11,0,0,1,3.06,2.1s8.06-8.06,7.9-12.25S432.36,285.58,430.75,284.13Z" style="fill:#263238;stroke:#263238;stroke-linecap:round;stroke-miterlimit:10"></path><path d="M409.16,296.45c0,.76-.28,1.37-.64,1.37s-.64-.61-.64-1.37.28-1.37.64-1.37S409.16,295.7,409.16,296.45Z" style="fill:#263238"></path><polygon points="408.04 319.4 408.84 324.24 426.72 314.41 424.63 310.06 408.04 319.4" style="fill:#fff;stroke:#263238;stroke-linecap:round;stroke-miterlimit:10"></polygon><path d="M467,403.17h0a12.14,12.14,0,0,1-17.43-1.54L359.13,289.32l9.71-8.46,99,104.83A12.15,12.15,0,0,1,467,403.17Z" style="fill:#263238;stroke:#263238;stroke-linecap:round;stroke-miterlimit:10"></path><path d="M380.21,290.3l-12.62,11a4.07,4.07,0,0,1-5.75-.39h0a4.09,4.09,0,0,1,.39-5.76l12.62-11a4.07,4.07,0,0,1,5.75.39h0A4.07,4.07,0,0,1,380.21,290.3Z" style="fill:#3E5C82;stroke:#263238;stroke-linecap:round;stroke-miterlimit:10"></path><path d="M288.75,201.46A57.53,57.53,0,1,0,369.92,207,57.53,57.53,0,0,0,288.75,201.46Zm70.66,81A50,50,0,1,1,364.22,212,50,50,0,0,1,359.41,282.46Z" style="fill:#3E5C82;stroke:#263238;stroke-linecap:round;stroke-miterlimit:10"></path><path d="M418,327.17s3.82-8.3,4.91-9.26,3-.81,4.76-.68S443,329.35,443,329.35s10.9,8.17,10.76,9.94-14,26.15-14,26.15L434,361.9,437,342l-16.48-9.26" style="fill:#fff;stroke:#263238;stroke-linecap:round;stroke-miterlimit:10"></path><path d="M434,361.9l-1.49,1.23s-2.18-.68-3.27-.14a18.27,18.27,0,0,0-2,1.23s-2.31,0-2.72.54-.82,1.23,0,1.77,5.31-.27,5.72,0-.54,1.64-1.36,3.82-2,3.81-1.36,4.49,1.77,1.09,2.31.55l.55-.55s3,2.45,4.08,2.18,3.54-2.32,4.36-5a31.2,31.2,0,0,0,.95-6.54Z" style="fill:#fff;stroke:#263238;stroke-linecap:round;stroke-miterlimit:10"></path><path d="M378.94,316.41a12.94,12.94,0,0,0-.7-2.58c-.69-2.16-1.7-2.89-.57-3.34s2.08.63,2.41,1.6a15.91,15.91,0,0,0,.76,1.82l-1.5,3.48Z" style="fill:#fff;stroke:#263238;stroke-linecap:round;stroke-miterlimit:10"></path><path d="M381.11,311s-2.77,6.5-2.59,7.1,5.56,5.92,5.56,5.92l-1,2.33a4.91,4.91,0,0,0,2.08,2.7c2.95,1.35,4.42-1.84,4.42-1.84l-1.83-2.64s1.89-4.55,2-5-6.1-7.77-6.1-7.77S383.17,309.58,381.11,311Z" style="fill:#fff;stroke:#263238;stroke-linecap:round;stroke-miterlimit:10"></path><line x1="383.72" y1="311.78" x2="380.18" y2="319.99" style="fill:none;stroke:#263238;stroke-linecap:round;stroke-miterlimit:10"></line><line x1="385.63" y1="314.28" x2="382.62" y2="322.23" style="fill:none;stroke:#263238;stroke-linecap:round;stroke-miterlimit:10"></line><line x1="387.94" y1="317.34" x2="384.97" y2="323.32" style="fill:none;stroke:#263238;stroke-linecap:round;stroke-miterlimit:10"></line><line x1="384.08" y1="324.02" x2="387.44" y2="325.85" style="fill:none;stroke:#263238;stroke-linecap:round;stroke-miterlimit:10"></line></g></svg>